<svg width="32" height="33" viewBox="0 0 32 33" fill="none" xmlns="http://www.w3.org/2000/svg">
<path d="M11.1835 12.3043C12.1115 14.2371 13.3765 16.0487 14.9786 17.6508C16.5807 19.2529 18.3922 20.5179 20.3251 21.4459C20.4913 21.5257 20.5745 21.5656 20.6796 21.5963C21.0534 21.7053 21.5125 21.627 21.829 21.4003C21.9181 21.3365 21.9943 21.2603 22.1467 21.1079C22.6129 20.6418 22.8459 20.4087 23.0803 20.2563C23.9642 19.6817 25.1036 19.6817 25.9875 20.2563C26.2218 20.4087 26.4549 20.6418 26.9211 21.1079L27.1809 21.3677C27.8895 22.0763 28.2438 22.4306 28.4362 22.8111C28.819 23.5679 28.819 24.4616 28.4362 25.2183C28.2438 25.5988 27.8895 25.9531 27.1809 26.6617L26.9707 26.8719C26.2645 27.578 25.9115 27.9311 25.4314 28.2008C24.8987 28.5 24.0714 28.7152 23.4605 28.7134C22.9099 28.7117 22.5336 28.6049 21.781 28.3913C17.7364 27.2433 13.92 25.0774 10.736 21.8934C7.552 18.7094 5.38604 14.8929 4.23808 10.8484C4.02447 10.0958 3.91766 9.71952 3.91603 9.16893C3.91421 8.55796 4.12936 7.73064 4.42859 7.19797C4.69825 6.71793 5.05133 6.36484 5.7575 5.65868L5.96767 5.4485C6.67626 4.73991 7.03056 4.38562 7.41107 4.19316C8.16782 3.8104 9.0615 3.8104 9.81825 4.19316C10.1988 4.38562 10.5531 4.73991 11.2616 5.4485L11.5215 5.70833C11.9876 6.17447 12.2207 6.40754 12.3731 6.64191C12.9477 7.52576 12.9477 8.6652 12.3731 9.54906C12.2207 9.78343 11.9876 10.0165 11.5215 10.4826C11.3691 10.6351 11.2928 10.7113 11.2291 10.8003C11.0024 11.1169 10.9241 11.5759 11.0331 11.9497C11.0637 12.0549 11.1036 12.1381 11.1835 12.3043Z" stroke="#FAFAFA" stroke-width="2" stroke-linecap="round" stroke-linejoin="round"/>
</svg>
